<svg xmlns="http://www.w3.org/2000/svg" xmlns:xlink="http://www.w3.org/1999/xlink" fill="none" height="431" width="648" style=""><rect id="backgroundrect" width="100%" height="100%" x="0" y="0" fill="none" stroke="none"/><filter id="a" color-interpolation-filters="sRGB" filterUnits="userSpaceOnUse" height="80.05059814453125" width="103.93199920654297" x="463.95599365234375" y="78.87830352783203"><feFlood flood-opacity="0" result="BackgroundImageFix"/><feColorMatrix in="SourceAlpha" type="matrix" values="0 0 0 0 0 0 0 0 0 0 0 0 0 0 0 0 0 0 127 0"/><feOffset dx="5.2574" dy="3.50815"/><feGaussianBlur stdDeviation="13.1435"/><feColorMatrix type="matrix" values="0 0 0 0 0.231373 0 0 0 0 0.25098 0 0 0 0 0.270588 0 0 0 0.05 0"/><feBlend in2="BackgroundImageFix" mode="normal" result="effect1_dropShadow"/><feBlend in="SourceGraphic" in2="effect1_dropShadow" mode="normal" result="shape"/></filter><filter id="b" color-interpolation-filters="sRGB" filterUnits="userSpaceOnUse" height="58.275001525878906" width="58.275001525878906" x="470.3290100097656" y="94.84159851074219"><feFlood flood-opacity="0" result="BackgroundImageFix"/><feColorMatrix in="SourceAlpha" type="matrix" values="0 0 0 0 0 0 0 0 0 0 0 0 0 0 0 0 0 0 127 0"/><feOffset dx="5.2574" dy="3.50815"/><feGaussianBlur stdDeviation="13.1435"/><feColorMatrix type="matrix" values="0 0 0 0 0.231373 0 0 0 0 0.25098 0 0 0 0 0.270588 0 0 0 0.05 0"/><feBlend in2="BackgroundImageFix" mode="normal" result="effect1_dropShadow"/><feBlend in="SourceGraphic" in2="effect1_dropShadow" mode="normal" result="shape"/></filter><filter id="c" color-interpolation-filters="sRGB" filterUnits="userSpaceOnUse" height="166.51300048828125" width="384.7929992675781" x="219.48300170898438" y="252.30799865722656"><feFlood flood-opacity="0" result="BackgroundImageFix"/><feColorMatrix in="SourceAlpha" type="matrix" values="0 0 0 0 0 0 0 0 0 0 0 0 0 0 0 0 0 0 127 0"/><feOffset dx="7.37933" dy="4.92407"/><feGaussianBlur stdDeviation="18.4483"/><feColorMatrix type="matrix" values="0 0 0 0 0.231373 0 0 0 0 0.25098 0 0 0 0 0.270588 0 0 0 0.05 0"/><feBlend in2="BackgroundImageFix" mode="normal" result="effect1_dropShadow"/><feBlend in="SourceGraphic" in2="effect1_dropShadow" mode="normal" result="shape"/></filter><filter id="d" color-interpolation-filters="sRGB" filterUnits="userSpaceOnUse" height="163.5850067138672" width="457.3789978027344" x="53.48270034790039" y="148.02699279785156"><feFlood flood-opacity="0" result="BackgroundImageFix"/><feColorMatrix in="SourceAlpha" type="matrix" values="0 0 0 0 0 0 0 0 0 0 0 0 0 0 0 0 0 0 127 0"/><feOffset dx="7.37933" dy="4.92407"/><feGaussianBlur stdDeviation="18.4483"/><feColorMatrix type="matrix" values="0 0 0 0 0.231373 0 0 0 0 0.25098 0 0 0 0 0.270588 0 0 0 0.05 0"/><feBlend in2="BackgroundImageFix" mode="normal" result="effect1_dropShadow"/><feBlend in="SourceGraphic" in2="effect1_dropShadow" mode="normal" result="shape"/></filter><linearGradient id="e"><stop offset="0" stop-color="#ffb935"/><stop offset="1" stop-color="#ffd943"/></linearGradient><linearGradient id="f" x1="-0.5909553170204163" x2="1.9090914726257324" xlink:href="#e" y1="0.5825392007827759" y2="0.5825392007827759"/><linearGradient id="g" x1="-0.5909553170204163" x2="1.9090914726257324" xlink:href="#e" y1="0.5825392007827759" y2="0.5825392007827759"/><linearGradient id="h" x1="-0.5908628702163696" x2="1.9090907573699951" xlink:href="#e" y1="0.5825392007827759" y2="0.5825392007827759"/><mask id="i" fill="#fff"><path clip-rule="evenodd" d="m491.643 112.31 38.042-10.548c1.516-.421 3.087.467 3.507 1.984l3.047 10.985c.42 1.517-.468 3.087-1.985 3.508l-38.442 10.66c-.003 0-.005-.001-.006-.004 0-.002-.003-.003-.005-.003-4.637 1.073-9.29-1.523-10.516-5.946-1.227-4.423 1.424-9.045 5.952-10.514.002 0 .003-.003.003-.005-.001-.002 0-.005.003-.005l.375-.105c.005-.001.009-.002.013-.003s.008-.002.012-.004z" fill="#fff" fill-rule="evenodd" id="svg_1"/></mask><g class="currentLayer" style=""><title>Layer 1</title><path d="m222.44751369953156,257.0000001192093 h47 v71 h-47 z" fill="#b6b6b6" id="svg_2" class="" stroke-opacity="1" stroke="#b6b6b6" fill-opacity="1"/><path d="m487 377h27v20h-27z" fill="#484848" id="svg_3" class="" stroke-opacity="1" stroke="#484848" fill-opacity="1"/><path d="m353 257h79v140h-79z" fill="#b6b6b6" id="svg_4" class="" stroke-opacity="1" stroke="#dadada" fill-opacity="1"/><path d="m418.697 323.653v72.809" stroke="#dadada" stroke-width=".828385" id="svg_5" class="" stroke-opacity="1"/><path d="m270 127.485c0-1.372 1.113-2.485 2.485-2.485h78.03c1.372 0 2.485 1.113 2.485 2.485v269.515h-83z" fill="#dadada" id="svg_6" class="" fill-opacity="1" stroke-opacity="1" stroke="#dadada"/><path clip-rule="evenodd" d="m277 135.657c0-.915.742-1.657 1.657-1.657h9.686c.915 0 1.657.742 1.657 1.657v9.686c0 .915-.742 1.657-1.657 1.657h-9.686c-.915 0-1.657-.742-1.657-1.657zm.029 117.597c0-.915.741-1.657 1.656-1.657h9.67c.915 0 1.656.742 1.656 1.657v10.089c0 .915-.741 1.657-1.656 1.657h-9.67c-.915 0-1.656-.742-1.656-1.657zm18.971.403c0-.915.742-1.657 1.657-1.657h9.686c.915 0 1.657.742 1.657 1.657v9.686c0 .915-.742 1.657-1.657 1.657h-9.686c-.915 0-1.657-.742-1.657-1.657zm19.657-1.657c-.915 0-1.657.742-1.657 1.657v9.686c0 .915.742 1.657 1.657 1.657h9.686c.915 0 1.657-.742 1.657-1.657v-9.686c0-.915-.742-1.657-1.657-1.657zm17.36 1.254c0-.915.742-1.657 1.657-1.657h9.669c.915 0 1.657.742 1.657 1.657v10.089c0 .915-.742 1.657-1.657 1.657h-9.669c-.915 0-1.657-.742-1.657-1.657zm-54.332 18.763c-.915 0-1.656.742-1.656 1.657v9.633c0 .915.741 1.657 1.656 1.657h9.633c.915 0 1.657-.742 1.657-1.657v-9.633c0-.915-.742-1.657-1.657-1.657zm17.315 1.64c0-.915.742-1.657 1.657-1.657h9.686c.915 0 1.657.742 1.657 1.657v9.686c0 .915-.742 1.657-1.657 1.657h-9.686c-.915 0-1.657-.742-1.657-1.657zm19.657-1.657c-.915 0-1.657.742-1.657 1.657v9.686c0 .915.742 1.657 1.657 1.657h9.686c.915 0 1.657-.742 1.657-1.657v-9.686c0-.915-.742-1.657-1.657-1.657zm17.343 1.657c0-.915.742-1.657 1.657-1.657h9.686c.915 0 1.657.742 1.657 1.657v9.686c0 .915-.742 1.657-1.657 1.657h-9.686c-.915 0-1.657-.742-1.657-1.657zm-35.343 17.343c-.915 0-1.657.742-1.657 1.657v9.686c0 .915.742 1.657 1.657 1.657h9.686c.915 0 1.657-.742 1.657-1.657v-9.686c0-.915-.742-1.657-1.657-1.657zm16.343 1.657c0-.915.742-1.657 1.657-1.657h9.686c.915 0 1.657.742 1.657 1.657v9.686c0 .915-.742 1.657-1.657 1.657h-9.686c-.915 0-1.657-.742-1.657-1.657zm20.657-1.657c-.915 0-1.657.742-1.657 1.657v9.686c0 .915.742 1.657 1.657 1.657h9.686c.915 0 1.657-.742 1.657-1.657v-9.686c0-.915-.742-1.657-1.657-1.657zm-37-157c-.915 0-1.657.742-1.657 1.657v9.686c0 .915.742 1.657 1.657 1.657h9.686c.915 0 1.657-.742 1.657-1.657v-9.686c0-.915-.742-1.657-1.657-1.657zm16.343 1.657c0-.915.742-1.657 1.657-1.657h9.686c.915 0 1.657.742 1.657 1.657v9.686c0 .915-.742 1.657-1.657 1.657h-9.686c-.915 0-1.657-.742-1.657-1.657zm20.657-1.657c-.915 0-1.657.742-1.657 1.657v9.686c0 .915.742 1.657 1.657 1.657h9.686c.915 0 1.657-.742 1.657-1.657v-9.686c0-.915-.742-1.657-1.657-1.657zm-57.628 21.657c0-.915.741-1.657 1.656-1.657h9.67c.915 0 1.656.742 1.656 1.657v8.686c0 .915-.741 1.657-1.656 1.657h-9.67c-.915 0-1.656-.742-1.656-1.657zm20.628-1.657c-.915 0-1.657.742-1.657 1.657v8.686c0 .915.742 1.657 1.657 1.657h9.686c.915 0 1.657-.742 1.657-1.657v-8.686c0-.915-.742-1.657-1.657-1.657zm16.343 1.657c0-.915.742-1.657 1.657-1.657h9.686c.915 0 1.657.742 1.657 1.657v8.686c0 .915-.742 1.657-1.657 1.657h-9.686c-.915 0-1.657-.742-1.657-1.657zm20.674-1.657c-.915 0-1.657.742-1.657 1.657v8.686c0 .915.742 1.657 1.657 1.657h9.669c.915 0 1.657-.742 1.657-1.657v-8.686c0-.915-.742-1.657-1.657-1.657zm-57.645 20.657c0-.915.741-1.657 1.656-1.657h9.67c.915 0 1.656.742 1.656 1.657v9.633c0 .915-.741 1.657-1.656 1.657h-9.67c-.915 0-1.656-.742-1.656-1.657zm20.628-1.657c-.915 0-1.657.742-1.657 1.657v9.686c0 .915.742 1.657 1.657 1.657h9.686c.915 0 1.657-.742 1.657-1.657v-9.686c0-.915-.742-1.657-1.657-1.657zm16.343 1.657c0-.915.742-1.657 1.657-1.657h9.686c.915 0 1.657.742 1.657 1.657v9.686c0 .915-.742 1.657-1.657 1.657h-9.686c-.915 0-1.657-.742-1.657-1.657zm20.674-1.657c-.915 0-1.657.742-1.657 1.657v9.633c0 .915.742 1.657 1.657 1.657h9.669c.915 0 1.657-.742 1.657-1.657v-9.633c0-.915-.742-1.657-1.657-1.657z" fill="#ffffff" fill-rule="evenodd" id="svg_7" class="" stroke-opacity="1" stroke="#dadada" fill-opacity="1"/><path clip-rule="evenodd" d="m532.976 262.411c-1.906-4.921-6.685-8.411-12.28-8.411-5.565 0-10.324 3.453-12.25 8.334-1.001-.211-1.794-.326-2.315-.326-5.043 0-9.131 4.092-9.131 9.14s4.088 9.139 9.131 9.139c.963 0 2.791.12 5.129.272h.001c9.324.609 26.764 1.747 29.872-2.036 2.244-1.67 3.698-4.342 3.698-7.354 0-5.059-4.101-9.161-9.16-9.161-.938 0-1.843.141-2.695.403z" fill="#ffffff" fill-rule="evenodd" id="svg_8" class="" stroke-opacity="1" stroke="#ffffff" fill-opacity="1"/><path clip-rule="evenodd" d="m142.976 276.411c-1.906-4.921-6.685-8.411-12.28-8.411-5.565 0-10.324 3.453-12.25 8.334-1.001-.211-1.794-.326-2.315-.326-5.043 0-9.131 4.092-9.131 9.14s4.088 9.139 9.131 9.139c.963 0 2.791.12 5.129.272 9.325.609 26.765 1.747 29.873-2.036 2.244-1.67 3.698-4.342 3.698-7.354 0-5.059-4.101-9.161-9.16-9.161-.938 0-1.843.141-2.695.403z" fill="#ffffff" fill-rule="evenodd" id="svg_9" class="" stroke-opacity="1" stroke="#ffffff" fill-opacity="1"/><path clip-rule="evenodd" d="m403.976 169.411c-1.906-4.921-6.685-8.411-12.28-8.411-5.565 0-10.324 3.453-12.25 8.334-1.001-.211-1.794-.326-2.315-.326-5.043 0-9.131 4.092-9.131 9.14s4.088 9.14 9.131 9.14c.963 0 2.791.119 5.129.271h.001c9.324.609 26.764 1.748 29.872-2.036 2.244-1.669 3.698-4.342 3.698-7.354 0-5.059-4.101-9.161-9.16-9.161-.938 0-1.843.141-2.695.403z" fill="#ffffff" fill-rule="evenodd" id="svg_10" class="" stroke-opacity="1" stroke="#ffffff" fill-opacity="1"/><path d="m130 347h11v50h-11z" fill="#b6b6b6" id="svg_11" class="" stroke-opacity="1" stroke="#dadada" fill-opacity="1"/><path clip-rule="evenodd" d="m429.976 217.884c-1.564-4.037-5.485-6.9-10.076-6.9-4.565 0-8.47 2.833-10.05 6.837-.822-.173-1.472-.267-1.9-.267-4.137 0-7.491 3.357-7.491 7.498 0 4.142 3.354 7.499 7.491 7.499.791 0 2.29.098 4.209.223 7.65.499 21.959 1.433 24.508-1.671 1.842-1.369 3.035-3.562 3.035-6.034 0-4.15-3.365-7.515-7.516-7.515-.769 0-1.511.116-2.21.33z" fill="#f2f9ff" fill-rule="evenodd" id="svg_12" class="" stroke-opacity="1" stroke="#dadada"/><path d="m140.44751739501953,282.988 h82 v114.012 h-82 z" fill="#dadada" id="svg_13" class="" stroke-opacity="1" stroke="#dadada" fill-opacity="1"/><path d="m164 270.485c0-1.372 1.113-2.485 2.485-2.485h29.03c1.372 0 2.485 1.113 2.485 2.485v12.503h-34z" fill="#919191" id="svg_14" class="" stroke-opacity="1" stroke="#919191" fill-opacity="1"/><path d="m216.343 288.984c.915 0 1.657.741 1.657 1.656v1.683c0 .915-.742 1.657-1.657 1.657h-68.686c-.915 0-1.657-.742-1.657-1.657v-1.683c0-.915.742-1.656 1.657-1.656z" fill="#ffffff" id="svg_15" class="" stroke-opacity="1" stroke="#dadada" fill-opacity="1"/><path d="m216.343 297.977c.915 0 1.657.741 1.657 1.656v1.683c0 .915-.742 1.657-1.657 1.657h-68.686c-.915 0-1.657-.742-1.657-1.657v-1.683c0-.915.742-1.656 1.657-1.656z" fill="#ffffff" id="svg_16" class="" stroke-opacity="1" stroke="#dadada" fill-opacity="1"/><path d="m216.343 306.97c.915 0 1.657.741 1.657 1.656v1.683c0 .915-.742 1.657-1.657 1.657h-68.686c-.915 0-1.657-.742-1.657-1.657v-1.683c0-.915.742-1.656 1.657-1.656z" fill="#ffffff" id="svg_17" class="" stroke-opacity="1" stroke="#dadada" fill-opacity="1"/><path d="m216.343 315.963c.915 0 1.657.741 1.657 1.656v1.683c0 .915-.742 1.657-1.657 1.657h-68.686c-.915 0-1.657-.742-1.657-1.657v-1.683c0-.915.742-1.656 1.657-1.656z" fill="#ffffff" id="svg_18" class="" stroke-opacity="1" stroke="#dadada" fill-opacity="1"/><path d="m216.343 324.955c.915 0 1.657.742 1.657 1.657v1.683c0 .915-.742 1.657-1.657 1.657h-68.686c-.915 0-1.657-.742-1.657-1.657v-1.683c0-.915.742-1.657 1.657-1.657z" fill="#ffffff" id="svg_19" class="" stroke-opacity="1" stroke="#dadada" fill-opacity="1"/><path d="m216.343 333.948c.915 0 1.657.742 1.657 1.657v1.683c0 .915-.742 1.657-1.657 1.657h-68.686c-.915 0-1.657-.742-1.657-1.657v-1.683c0-.915.742-1.657 1.657-1.657z" fill="#ffffff" id="svg_20" class="" stroke-opacity="1" stroke="#dadada" fill-opacity="1"/><path d="m216.343 342.941c.915 0 1.657.742 1.657 1.657v1.683c0 .915-.742 1.657-1.657 1.657h-68.686c-.915 0-1.657-.742-1.657-1.657v-1.683c0-.915.742-1.657 1.657-1.657z" fill="#ffffff" id="svg_21" class="" stroke-opacity="1" stroke="#dadada" fill-opacity="1"/><path d="m216.343 351.934c.915 0 1.657.742 1.657 1.657v1.683c0 .915-.742 1.656-1.657 1.656h-68.686c-.915 0-1.657-.741-1.657-1.656v-1.683c0-.915.742-1.657 1.657-1.657z" fill="#ffffff" id="svg_22" class="" stroke-opacity="1" stroke="#dadada" fill-opacity="1"/><path d="m216.343 360.927c.915 0 1.657.742 1.657 1.657v1.683c0 .915-.742 1.656-1.657 1.656h-68.686c-.915 0-1.657-.741-1.657-1.656v-1.683c0-.915.742-1.657 1.657-1.657z" fill="#ffffff" id="svg_23" class="" stroke-opacity="1" stroke="#dadada" fill-opacity="1"/><path d="m216.343 369.92c.915 0 1.657.742 1.657 1.657v1.683c0 .915-.742 1.656-1.657 1.656h-68.686c-.915 0-1.657-.741-1.657-1.656v-1.683c0-.915.742-1.657 1.657-1.657z" fill="#ffffff" id="svg_24" class="" stroke-opacity="1" stroke="#dadada" fill-opacity="1"/><path d="m216.343 378.913c.915 0 1.657.742 1.657 1.657v1.683c0 .915-.742 1.656-1.657 1.656h-68.686c-.915 0-1.657-.741-1.657-1.656v-1.683c0-.915.742-1.657 1.657-1.657z" fill="#ffffff" id="svg_25" class="" stroke-opacity="1" stroke="#dadada" fill-opacity="1"/><path d="m311.5 96v30" stroke="#dadada" id="svg_26" class="" stroke-opacity="1"/><circle cx="311.5" cy="95.5" fill="#62e51d" r="1.5" id="svg_27" class="" stroke-opacity="1" stroke="#dadada" fill-opacity="1"/><g fill="#919191" id="svg_28" class="" stroke-opacity="1" stroke="#919191" fill-opacity="1"><path d="m211 329.561c0-.915.742-1.657 1.657-1.657h80.686c.915 0 1.657.742 1.657 1.657v67.54h-84z" id="svg_29" stroke="#919191" fill="#919191" fill-opacity="1" stroke-opacity="1"/><path d="m288 362c.552 0 1 .448 1 1 0 .552-.448 1-1 1h-71c-.552 0-1-.448-1-1 0-.552.448-1 1-1z" opacity=".5" id="svg_30" stroke="#919191" fill="#919191" fill-opacity="1" stroke-opacity="1"/><path d="m288 366c.552 0 1 .448 1 1 0 .552-.448 1-1 1h-71c-.552 0-1-.448-1-1 0-.552.448-1 1-1z" opacity=".5" id="svg_31" stroke="#919191" fill="#919191" fill-opacity="1" stroke-opacity="1"/><path d="m288 370c.552 0 1 .448 1 1 0 .552-.448 1-1 1h-71c-.552 0-1-.448-1-1 0-.552.448-1 1-1z" opacity=".5" id="svg_32" stroke="#919191" fill="#919191" fill-opacity="1" stroke-opacity="1"/><path d="m288 374c.552 0 1 .448 1 1 0 .552-.448 1-1 1h-71c-.552 0-1-.448-1-1 0-.552.448-1 1-1z" opacity=".5" id="svg_33" stroke="#919191" fill="#919191" fill-opacity="1" stroke-opacity="1"/><path d="m288 378c.552 0 1 .448 1 1 0 .552-.448 1-1 1h-71c-.552 0-1-.448-1-1 0-.552.448-1 1-1z" opacity=".5" id="svg_34" stroke="#919191" fill="#919191" fill-opacity="1" stroke-opacity="1"/><path d="m288 382c.552 0 1 .448 1 1 0 .552-.448 1-1 1h-71c-.552 0-1-.448-1-1 0-.552.448-1 1-1z" opacity=".5" id="svg_35" stroke="#919191" fill="#919191" fill-opacity="1" stroke-opacity="1"/><path d="m288 358c.552 0 1 .448 1 1 0 .552-.448 1-1 1h-71c-.552 0-1-.448-1-1 0-.552.448-1 1-1z" opacity=".5" id="svg_36" stroke="#919191" fill="#919191" fill-opacity="1" stroke-opacity="1"/><path d="m288 342c.552 0 1 .448 1 1 0 .552-.448 1-1 1h-71c-.552 0-1-.448-1-1 0-.552.448-1 1-1z" opacity=".5" id="svg_37" stroke="#919191" fill="#919191" fill-opacity="1" stroke-opacity="1"/><path d="m288 346c.552 0 1 .448 1 1 0 .552-.448 1-1 1h-71c-.552 0-1-.448-1-1 0-.552.448-1 1-1z" opacity=".5" id="svg_38" stroke="#919191" fill="#919191" fill-opacity="1" stroke-opacity="1"/><path d="m288 350c.552 0 1 .448 1 1 0 .552-.448 1-1 1h-71c-.552 0-1-.448-1-1 0-.552.448-1 1-1z" opacity=".5" id="svg_39" stroke="#919191" fill="#919191" fill-opacity="1" stroke-opacity="1"/><path d="m288 354c.552 0 1 .448 1 1 0 .552-.448 1-1 1h-71c-.552 0-1-.448-1-1 0-.552.448-1 1-1z" opacity=".5" id="svg_40" stroke="#919191" fill="#919191" fill-opacity="1" stroke-opacity="1"/><path d="m288 338c.552 0 1 .448 1 1 0 .552-.448 1-1 1h-71c-.552 0-1-.448-1-1 0-.552.448-1 1-1z" opacity=".5" id="svg_41" stroke="#919191" fill="#919191" fill-opacity="1" stroke-opacity="1"/></g><path clip-rule="evenodd" d="m432 254.485c0-1.372 1.113-2.485 2.485-2.485h31.03c1.372 0 2.485 1.113 2.485 2.485v9.562c.157-.031.319-.047.485-.047h16.03c1.372 0 2.485 1.113 2.485 2.485v130.515h-19-2-34-20v-130.515c0-1.372 1.113-2.485 2.485-2.485h15.03c1.372 0 2.485 1.113 2.485 2.485z" fill="#919191" fill-rule="evenodd" id="svg_42" class="" stroke-opacity="1" stroke="#919191" fill-opacity="1"/><path d="m443.531 197.467v29.94" stroke="#dadada" stroke-width=".828385" id="svg_43" class="" stroke-opacity="1"/><circle cx="443.531005859375" cy="196.6580047607422" fill="#6cbbf7" r="1.618340015411377" id="svg_44" class="" stroke-opacity="1" stroke="#dadada"/><path d="m457.349 197.467v29.94" stroke="#dadada" stroke-width=".828385" id="svg_45" class="" stroke-opacity="1"/><circle cx="457.3489990234375" cy="196.6580047607422" fill="#6cbbf7" r="1.618340015411377" id="svg_46" class="" stroke-opacity="1" stroke="#dadada"/><path d="m434.473 246.06c0-8.219 6.662-14.881 14.88-14.881 8.219 0 14.881 6.662 14.881 14.881v18.069h-29.761z" fill="#dadada" id="svg_47" class="" stroke-opacity="1" stroke="#dadada" fill-opacity="1"/><path d="m418 276.5c0-2.485 2.015-4.5 4.5-4.5 2.485 0 4.5 2.015 4.5 4.5v12.5h-9z" fill="#ffffff" id="svg_48" class="" stroke-opacity="1" stroke="#ffffff" fill-opacity="1"/><path d="m436.55248618125916,276.5 c0,-2.485 2.015,-4.5 4.5,-4.5 c2.485,0 4.5,2.015 4.5,4.5 v12.5 h-9 z" fill="#ffffff" id="svg_49" class="" stroke-opacity="1" stroke="#ffffff" fill-opacity="1"/><path d="m455 276c0-2.209 1.791-4 4-4 2.209 0 4 1.791 4 4v13h-8z" fill="#ffffff" id="svg_50" class="" stroke-opacity="1" stroke="#ffffff" fill-opacity="1"/><path d="m473 276c0-2.209 1.791-4 4-4 2.209 0 4 1.791 4 4v13h-8z" fill="#ffffff" id="svg_51" class="" stroke-opacity="1" stroke="#ffffff" fill-opacity="1"/><path clip-rule="evenodd" d="m552.804 238.396c-.996-2.572-3.495-4.396-6.419-4.396-2.908 0-5.396 1.805-6.402 4.356-.524-.11-.938-.17-1.211-.17-2.635 0-4.772 2.138-4.772 4.777 0 2.638 2.137 4.777 4.772 4.777.504 0 1.459.062 2.682.142 4.873.318 13.988.913 15.613-1.064 1.173-.873 1.933-2.27 1.933-3.845 0-2.644-2.144-4.787-4.788-4.787-.49 0-.963.073-1.408.21z" fill="#ffffff" fill-rule="evenodd" opacity="1" id="svg_52" class="" stroke-opacity="1" stroke="#ffffff" fill-opacity="1"/><path d="m290 254c63-38.5 113.5-26.5 156.5 0" stroke="#dadada" stroke-dasharray="2 6" stroke-linecap="round" stroke-width="1.5" id="svg_53" class="" stroke-opacity="1"/><path d="m319.44751381874084,138.29004669189453 c117.5,-29.5 185,39 157,135.5 " stroke="#000000" stroke-dasharray="2 6" stroke-linecap="round" stroke-width="1.5" id="svg_54" class="" stroke-opacity="1" fill="#none" fill-opacity="1"/><path d="m187.42084015875074,372.18802950161495 c-6.7034619849920265,-89.17026251792907 29.79853282749653,-137.38828252673147 96.75132711261512,-135.10755709201095 " stroke="#000000" stroke-dasharray="2 6" stroke-linecap="round" stroke-width="1.5" id="svg_55" class="" stroke-opacity="1" fill="#none" fill-opacity="1" opacity="1"/><rect fill="#ffffff" height="25" rx="4.358729839324951" stroke="#ffffff" stroke-width="2" width="24.03569984436035" x="231" y="46" id="svg_56" class="" stroke-opacity="1" fill-opacity="1"/><path clip-rule="evenodd" d="m246.213 53.2969 1.49 1.4899c.137.1373.137.3501 0 .4874l-.927.9338-1.977-1.9774.927-.9337c.137-.1374.35-.1374.487 0zm-8.019 7.5387 5.836-5.836 1.977 1.9774-5.836 5.836h-1.977z" fill="#dadada" fill-rule="evenodd" id="svg_57" class="" stroke-opacity="1" stroke="#dadada" fill-opacity="1"/><rect fill="#dadada" height="63.138999938964844" rx="3.3169898986816406" stroke="#dadada" stroke-width="1.522" width="93.98650360107422" x="322.760986328125" y="48.099998474121094" id="svg_58" class="" stroke-opacity="1" fill-opacity="1"/><rect fill="#fff" height="63.138999938964844" rx="3.3169898986816406" stroke="#ffffff" stroke-width="1.522" width="93.98650360107422" x="330.2694396972656" y="39.99856948852539" id="svg_59" class="" stroke-opacity="1"/><rect fill="#f8f9f9" height="10.084699630737305" rx="2.2829999923706055" width="62.88140106201172" x="333.864013671875" y="56.830501556396484" id="svg_60" class="" stroke-opacity="1" stroke="#f8f9f9" fill-opacity="1"/><rect fill="#f8f9f9" height="4.745759963989258" rx="2.2829999923706055" width="19.5762996673584" x="333.864013671875" y="47.93220138549805" id="svg_61" class="" stroke-opacity="1" stroke="#f8f9f9" fill-opacity="1"/><rect fill="#eff0f1" height="5.338980197906494" rx="2.2829999923706055" width="78.30509948730469" x="333.864013671875" y="70.47460174560547" id="svg_62" class="" stroke-opacity="1" stroke="#eff0f1" fill-opacity="1"/><rect fill="#eff0f1" height="5.338980197906494" rx="2.2829999923706055" width="78.30509948730469" x="333.864013671875" y="79.96610260009766" id="svg_63" class="" stroke-opacity="1" stroke="#eff0f1"/><rect fill="#919191" height="10.084699630737305" rx="2.2829999923706055" width="17.203399658203125" x="333.905517578125" y="89.45760345458984" id="svg_64" class="" stroke-opacity="1" stroke="#919191" fill-opacity="1"/><rect fill="#b6b6b6" height="10.084699630737305" rx="2.2829999923706055" width="17.203399658203125" x="355.8545227050781" y="89.45760345458984" id="svg_65" class="" stroke-opacity="1" stroke="#b6b6b6" fill-opacity="1"/><rect fill="#dadada" height="10.084699630737305" rx="2.2829999923706055" width="17.203399658203125" x="378.3559875488281" y="89.45760345458984" id="svg_66" class="" stroke-opacity="1" stroke="#dadada" fill-opacity="1"/><rect fill="#ffffff" height="24.375" rx="3.5414700508117676" stroke="#ffffff" stroke-width="1.625" width="24.375" x="271.81201171875" y="72.8125" id="svg_67" class="" stroke-opacity="1" fill-opacity="1"/><g fill="#000" opacity=".4" id="svg_68" class="" stroke-opacity="1" stroke="#dadada"><path d="m279.506 77.494c-.159-.1587-.416-.1587-.575 0-.158.1586-.158.4159 0 .5745l1.625 1.625c.159.1587.416.1587.575 0 .159-.1586.159-.4159 0-.5745z" id="svg_69" stroke="#dadada" stroke-opacity="1"/><path d="m280.844 81.4375h-1.625c-.225 0-.406.1819-.406.4063 0 .2243.181.4062.406.4062h1.625c.224 0 .406-.1819.406-.4062 0-.2244-.182-.4063-.406-.4063z" id="svg_70" stroke="#dadada" stroke-opacity="1"/><path d="m288.969 82.25h-1.625c-.225 0-.406-.1819-.406-.4062 0-.2244.181-.4063.406-.4063h1.625c.224 0 .406.1819.406.4063 0 .2243-.182.4062-.406.4062z" id="svg_71" stroke="#dadada" stroke-opacity="1"/><path d="m289.256 78.0685c.159-.1586.159-.4159 0-.5745-.159-.1587-.416-.1587-.575 0l-1.625 1.625c-.158.1586-.158.4159 0 .5745.159.1587.416.1587.575 0z" id="svg_72" stroke="#dadada" stroke-opacity="1"/></g><path d="m283.048 89.958c-.363.3037-.831.4533-1.302.417h-1.308v-4.875h1.624l.813-6.1994c0-.1625.187-.3006.406-.3006.22 0 .407.1381.407.3006v9.4494c-.048.4708-.278.9043-.64 1.208z" fill="#dadada" id="svg_73" class="" stroke-opacity="1" stroke="#dadada" fill-opacity="1"/><path d="m285.14 89.958c.363.3037.83.4533 1.302.417h1.308v-4.875h-1.625l-.813-6.1994c0-.1625-.186-.3006-.406-.3006-.219 0-.406.1381-.406.3006v9.4494c.047.4708.277.9043.64 1.208z" fill="#dadada" id="svg_74" class="" stroke-opacity="1" stroke="#dadada" fill-opacity="1"/><g fill="#919191" opacity=".7" id="svg_75" class="" stroke-opacity="1" stroke="#dadada" fill-opacity="1"><path d="m278.406 85.5c-.673 0-1.218.5457-1.218 1.2188v2.4374c0 .6731.545 1.2188 1.218 1.2188h1.219v-4.875z" id="svg_76" stroke="#dadada" fill="#919191" fill-opacity="1" stroke-opacity="1"/><path d="m289.781 85.5h-1.219v4.875h1.219c.673 0 1.219-.5457 1.219-1.2188v-2.4374c0-.6731-.546-1.2188-1.219-1.2188z" id="svg_77" stroke="#dadada" fill="#919191" fill-opacity="1" stroke-opacity="1"/></g><rect fill="#fff" height="24" rx="4.358729839324951" stroke="#ffffff" stroke-width="2" width="100" x="371" y="121" id="svg_78" class="" stroke-opacity="1"/><rect fill="#eff0f1" height="13.8125" rx="3" width="69.78949737548828" x="395.76800537109375" y="125.68699645996094" id="svg_79" class="" stroke-opacity="1" stroke="#eff0f1" fill-opacity="1"/><path d="m389 128v-1h-8v1h-3v3c0 1.6 1.4 3 3 3 0 0 .5 2 3 2v1h-2s-1 1.5-1 2h8c0-.4-1-2-1-2h-2v-1c2.5 0 3-2 3-2 1.6-.2 3-1.4 3-3v-3zm-8 4c-.5 0-1-.5-1-1v-1h1zm9-1c0 .5-.5 1-1 1v-2h1zm-5 2c-.53 0-1.039-.211-1.414-.586s-.586-.884-.586-1.414.211-1.039.586-1.414.884-.586 1.414-.586 1.039.211 1.414.586.586.884.586 1.414-.211 1.039-.586 1.414-.884.586-1.414.586z" fill="#62e51d" id="svg_80" class="" stroke-opacity="1" stroke="#62e51d" fill-opacity="1"/><rect fill="#fff" height="39.83250045776367" rx="3.5040299892425537" stroke="#ffffff" stroke-width="1.60782" width="33.12889862060547" x="216.8509979248047" y="101.80400085449219" id="svg_81" class="" stroke-opacity="1"/><rect fill="#fff" height="39.83250045776367" rx="3.5040299892425537" stroke="#ffffff" stroke-width="1.60782" width="33.12889862060547" x="213.8040008544922" y="105.45999908447266" id="svg_82" class="" stroke-opacity="1"/><rect fill="#dadada" height="4.823460102081299" rx="2.4117300510406494" width="25.725099563598633" x="217.822998046875" y="119.48999786376953" id="svg_83" class="" stroke-opacity="1" stroke="#dadada" fill-opacity="1"/><rect fill="#dadada" height="4.823460102081299" rx="2.4117300510406494" width="25.725099563598633" x="217.822998046875" y="128.33299255371094" id="svg_84" class="" stroke-opacity="1" stroke="#dadada" fill-opacity="1"/><rect fill="#dadada" height="4.01954984664917" rx="2.009779930114746" width="25.725099563598633" x="217.822998046875" y="137.17599487304688" id="svg_85" class="" stroke-opacity="1" stroke="#dadada" fill-opacity="1"/><circle cx="219.7030029296875" cy="111.36000061035156" fill="#dadada" r="2.437659978866577" id="svg_86" class="" stroke-opacity="1" stroke="#dadada" fill-opacity="1"/><g filter="url(#a)" id="svg_87" class="" stroke-opacity="1" stroke="#ffffff" fill="#ffffff" fill-opacity="1"><path clip-rule="evenodd" d="m491.643 112.31 38.042-10.548c1.516-.421 3.087.467 3.507 1.984l3.047 10.985c.42 1.517-.468 3.087-1.985 3.508l-38.442 10.66c-.003 0-.005-.001-.006-.004 0-.002-.003-.003-.005-.003-4.637 1.073-9.29-1.523-10.516-5.946-1.227-4.423 1.424-9.045 5.952-10.514.002 0 .003-.003.003-.005-.001-.002 0-.005.003-.005l.375-.105c.005-.001.009-.002.013-.003s.008-.002.012-.004z" fill="#ffffff" fill-rule="evenodd" id="svg_88" stroke="#ffffff" stroke-opacity="1" fill-opacity="1"/><path d="m491.643 112.31.379 1.374h.002zm-.025.007.381 1.373h.002zm4.183 16.575-.321-1.388zm-4.564-16.46-.44-1.355zm.787 1.252 38.042-10.549-.762-2.747-38.041 10.549zm39.795-9.557 3.046 10.985 2.747-.762-3.046-10.985zm2.054 12.738-38.442 10.66.762 2.747 38.442-10.66zm-38.393 10.639c-3.955.915-7.816-1.31-8.822-4.939l-2.747.762c1.447 5.217 6.891 8.184 12.211 6.954zm-8.822-4.939c-1.007-3.629 1.157-7.525 5.018-8.777l-.879-2.711c-5.194 1.685-8.332 7.032-6.886 12.25zm4.965-8.77.376-.105-.761-2.746-.376.104zm.378-.105c.004-.001.007-.002.011-.003l-.762-2.746c-.005.001-.009.002-.014.004zm.011-.003c.003-.001.007-.002.01-.003l-.758-2.747c-.004.001-.009.003-.014.004zm.601-1.641c.209.756-.234 1.539-.99 1.749l-.761-2.747c-.761.211-1.206.999-.995 1.76zm4.566 16.469c-.207-.747-.963-1.181-1.699-1.011l.642 2.777c-.732.169-1.483-.263-1.689-1.005zm-1.748-.99c.756-.209 1.539.234 1.748.99l-2.746.761c.211.761.999 1.207 1.76.996zm39.434-12.413c.211.758-.234 1.543-.992 1.753l.762 2.747c2.275-.631 3.607-2.987 2.977-5.262zm-43.189-1.324c.72-.233 1.144-.995.937-1.742l-2.746.762c-.206-.742.215-1.499.93-1.731zm38.39-10.653c.758-.211 1.543.234 1.753.992l2.747-.762c-.631-2.275-2.987-3.6074-5.262-2.977z" fill="#ffffff" mask="url(#i)" id="svg_89" stroke="#ffffff" stroke-opacity="1" fill-opacity="1"/></g><g filter="url(#b)" id="svg_90" class="" stroke-opacity="1" stroke="#e8e841" fill="#41e841" fill-opacity="1"><circle cx="563.9042358398438" cy="94.50389099121094" fill="#41e841" r="2.8498001098632812" transform="matrix(0.96363605,-0.26721819,0.26721819,0.96363605,-14.220615,136.442705) " id="svg_91" stroke="#e8e841" stroke-opacity="1" fill-opacity="1"/><circle cx="563.9042358398438" cy="94.50389099121094" r="2.137350082397461" stroke="#e8e841" stroke-width="1.4249" transform="matrix(0.96363605,-0.26721819,0.26721819,0.96363605,-14.220615,136.442705) " id="svg_92" stroke-opacity="1" fill="#41e841" fill-opacity="1"/></g><rect fill="#dadada" height="11.399200439453125" rx="2.5289299488067627" transform="matrix(0.96363605,-0.26721819,0.26721819,0.96363605,-12.201751,137.248201) " width="31.34779930114746" x="498.1789855957031" y="113.45600128173828" id="svg_93" class="" stroke-opacity="1" stroke="#dadada" fill-opacity="1"/><rect fill="#ffffff" height="18.53660011291504" rx="3.366489887237549" stroke="#ffffff" stroke-width="1.54471" width="77.23570251464844" x="103.77200317382812" y="145.03199768066406" id="svg_94" class="" stroke-opacity="1" fill-opacity="1"/><rect fill="#dadada" height="10.66819953918457" rx="2.3170700073242188" width="53.902400970458984" x="122.9020004272461" y="148.6529998779297" id="svg_95" class="" stroke-opacity="1" stroke="#ffffff" fill-opacity="1"/><rect fill="#dadada" height="10.812999725341797" rx="0.5087080001831055" width="10.812999725341797" x="108.40699768066406" y="148.8939971923828" id="svg_96" class="" stroke-opacity="1" stroke="#ffffff" fill-opacity="1"/><path d="m113.073 152.09c0 .908 2.772 1.271 2.772 1.271 0 1.31-.555 2.906-2.033 2.906s-2.032-1.596-2.032-2.906l1.663-.727" stroke="#ffffff" stroke-miterlimit="10" stroke-width=".497403" id="svg_97" class="" stroke-opacity="1" fill="#ffffff" fill-opacity="1"/><path d="m115.736 154.055.35-.375v-.946c0-1.036-.782-1.874-1.748-1.874h-1.048c-.966 0-1.747.838-1.747 1.874v.937l.349.374" stroke="#ffffff" stroke-miterlimit="10" stroke-width=".497403" id="svg_98" class="" stroke-opacity="1" fill="#ffffff" fill-opacity="1"/><path d="m115.367 157.004c0 .819-.7 1.474-1.554 1.474-.864 0-1.554-.664-1.554-1.474" stroke="#ffffff" stroke-miterlimit="10" stroke-width=".497403" id="svg_99" class="" stroke-opacity="1" fill="#ffffff" fill-opacity="1"/><path d="m114.888 155.898v.587c0 .299.501.532.501.532l1.002.533c1.01.355 1.845 1.074 1.845 2.157" stroke="#ffffff" stroke-miterlimit="10" stroke-width=".497403" id="svg_100" class="" stroke-opacity="1" fill="#ffffff" fill-opacity="1"/><path d="m112.737 155.898v.587c0 .299-.501.532-.501.532l-1.002.533c-1.01.355-1.845 1.074-1.845 2.157" stroke="#ffffff" stroke-miterlimit="10" stroke-width=".497403" id="svg_101" class="" stroke-opacity="1" fill="#ffffff" fill-opacity="1"/><rect fill="#ffffff" height="18.53660011291504" rx="3.366489887237549" stroke="#ffffff" stroke-width="1.54471" width="77.23570251464844" x="103.77200317382812" y="118.77200317382812" id="svg_102" class="" stroke-opacity="1" fill-opacity="1"/><rect fill="#dadada" height="10.66819953918457" rx="2.3170700073242188" width="53.902400970458984" x="122.9020004272461" y="122.39299774169922" id="svg_103" class="" stroke-opacity="1" stroke="#ffffff" fill-opacity="1"/><rect fill="#dadada" height="10.812999725341797" rx="0.5087080001831055" width="10.812999725341797" x="108.40699768066406" y="122.63400268554688" id="svg_104" class="" stroke-opacity="1" stroke="#ffffff" fill-opacity="1"/><path d="m113.073 125.829c0 .909 2.772 1.272 2.772 1.272 0 1.31-.555 2.906-2.033 2.906s-2.032-1.596-2.032-2.906l1.663-.727" stroke="#ffffff" stroke-miterlimit="10" stroke-width=".497403" id="svg_105" class="" stroke-opacity="1" fill="#ffffff" fill-opacity="1"/><path d="m115.736 127.795.35-.375v-.946c0-1.036-.782-1.874-1.748-1.874h-1.048c-.966 0-1.747.838-1.747 1.874v.936l.349.375" stroke="#ffffff" stroke-miterlimit="10" stroke-width=".497403" id="svg_106" class="" stroke-opacity="1" fill="#ffffff" fill-opacity="1"/><path d="m115.367 130.744c0 .819-.7 1.474-1.554 1.474-.864 0-1.554-.664-1.554-1.474" stroke="#ffffff" stroke-miterlimit="10" stroke-width=".497403" id="svg_107" class="" stroke-opacity="1" fill="#ffffff" fill-opacity="1"/><path d="m114.888 129.638v.587c0 .299.501.532.501.532l1.002.532c1.01.355 1.845 1.075 1.845 2.158" stroke="#ffffff" stroke-miterlimit="10" stroke-width=".497403" id="svg_108" class="" stroke-opacity="1" fill="#ffffff" fill-opacity="1"/><path d="m112.737 129.638v.587c0 .299-.501.532-.501.532l-1.002.532c-1.01.355-1.845 1.075-1.845 2.158" stroke="#ffffff" stroke-miterlimit="10" stroke-width=".497403" id="svg_109" class="" stroke-opacity="1" fill="#ffffff" fill-opacity="1"/><rect fill="#ffffff" height="18.53660011291504" rx="3.366489887237549" stroke="#ffffff" stroke-width="1.54471" width="77.23570251464844" x="119.99199676513672" y="131.90199279785156" id="svg_110" class="" stroke-opacity="1" fill-opacity="1"/><rect fill="#dadada" height="10.66819953918457" rx="2.3170700073242188" width="53.902400970458984" x="139.1219940185547" y="135.5229949951172" id="svg_111" class="" stroke-opacity="1" stroke="#ffffff" fill-opacity="1"/><rect fill="#dadada" height="10.812999725341797" rx="0.5087080001831055" width="10.812999725341797" x="124.6259994506836" y="135.76400756835938" id="svg_112" class="" stroke-opacity="1" stroke="#ffffff" fill-opacity="1"/><path d="m129.293,138.96 c0,0.908 2.771,1.271 2.771,1.271 c0,1.31 -0.554,2.906 -2.032,2.906 c-1.479,0 -2.033,-1.596 -2.033,-2.906 l1.6630000000000003,-0.7270000000000001 " stroke="#ffffff" stroke-miterlimit="10" stroke-width=".497403" id="svg_113" class="" stroke-opacity="1" fill="#ffffff" fill-opacity="1"/><path d="m131.956 140.925.349-.375v-.946c0-1.036-.781-1.874-1.747-1.874h-1.049c-.965 0-1.747.838-1.747 1.874v.936l.35.375" stroke="#ffffff" stroke-miterlimit="10" stroke-width=".497403" id="svg_114" class="" stroke-opacity="1" fill="#ffffff" fill-opacity="1"/><path d="m131.586 143.874c0 .819-.699 1.474-1.554 1.474-.863 0-1.554-.664-1.554-1.474" stroke="#ffffff" stroke-miterlimit="10" stroke-width=".497403" id="svg_115" class="" stroke-opacity="1" fill="#ffffff" fill-opacity="1"/><path d="m131.108 142.768v.587c0 .299.501.532.501.532l1.001.533c1.011.355 1.845 1.074 1.845 2.157" stroke="#ffffff" stroke-miterlimit="10" stroke-width=".497403" id="svg_116" class="" stroke-opacity="1" fill="#ffffff" fill-opacity="1"/><path d="m128.956 142.768v.587c0 .299-.501.532-.501.532l-1.001.533c-1.011.355-1.845 1.074-1.845 2.157" stroke="#ffffff" stroke-miterlimit="10" stroke-width=".497403" id="svg_117" class="" stroke-opacity="1" fill="#ffffff" fill-opacity="1"/><rect fill="#ffffff" height="39.13850021362305" rx="2.5032899379730225" stroke="#dadada" stroke-width="1.73236" width="64.91850280761719" x="98.41868591308594" y="38.8661994934082" id="svg_118" class="" stroke-opacity="1" fill-opacity="1"/><path clip-rule="evenodd" d="m103.257 53.0605 1.887-1.8863h6.916c.685 0 1.258-.5726 1.258-1.2576v-5.659c0-.685-.573-1.2576-1.258-1.2576h-7.545c-.692 0-1.258.5659-1.258 1.2576zm5.006-3.1061c-.359-.0126-.648-.2704-.636-.6665.013-.3962.315-.654.68-.6414.377.0126.66.283.647.6791-.012.3961-.302.6413-.691.6288zm.578-2.3128c-.029.1344-.046.2712-.05.4087 0 .0252-.019.0881-.101.0881h-.88c-.088 0-.101-.0566-.101-.0818-.008-.3128.07-.6218.227-.8929.131-.2275.365-.4112.666-.5847.259-.1488.488-.4477.492-.7522.003-.1706-.056-.3364-.165-.4677-.138-.1634-.289-.2515-.578-.2515-.283 0-.522.1446-.642.327-.105.1661-.103.3469-.101.5208 0 .0235.001.047.001.0703h-1.082c0-.7357.195-1.2073.616-1.484.351-.1955.749-.2912 1.151-.2766.553 0 .993.1006 1.383.3898.365.2641.554.6414.554 1.1444 0 .3144-.107.5659-.271.7797-.094.1257-.276.2955-.54.4967l-.302.1887c-.13.0932-.227.2253-.277.3772z" fill="#62e51d" fill-rule="evenodd" id="svg_119" class="" stroke-opacity="1" stroke="#62e51d" fill-opacity="1"/><circle cx="105.17400360107422" cy="70.69670104980469" fill="#6ecb64" r="1.2575600147247314" id="svg_120" class="" stroke-opacity="1" stroke="#dadada"/><circle cx="119.00700378417969" cy="62.522499084472656" fill="#6ecb64" r="1.2575600147247314" id="svg_121" class="" stroke-opacity="1" stroke="#dadada"/><circle cx="139.1280059814453" cy="66.92400360107422" fill="#6ecb64" r="1.2575600147247314" id="svg_122" class="" stroke-opacity="1" stroke="#dadada"/><circle cx="155.4770050048828" cy="54.97710037231445" fill="#6ecb64" r="1.2575600147247314" id="svg_123" class="" stroke-opacity="1" stroke="#dadada"/><path d="m105.174 70.6967 13.833-8.1742 20.121 4.4015 16.349-11.9469" stroke="#dadada" stroke-width=".628782" id="svg_124" class="" stroke-opacity="1"/><rect fill="#ffffff" height="39.13850021362305" rx="2.5032899379730225" stroke="#dadada" stroke-width="1.73236" width="64.91850280761719" x="138.86599731445312" y="60.8661994934082" id="svg_125" class="" stroke-opacity="1" fill-opacity="1"/><circle cx="146.1739959716797" cy="92.69670104980469" fill="none" r="1.2575600147247314" id="svg_126" class="" stroke-opacity="1" stroke="#dadada"/><circle cx="160.0070037841797" cy="84.52249908447266" fill="#ffffff" r="1.2575600147247314" id="svg_127" class="" stroke-opacity="1" stroke="#dadada" fill-opacity="1"/><circle cx="180.1280059814453" cy="88.92400360107422" fill="#ffffff" r="1.2575600147247314" id="svg_128" class="" stroke-opacity="1" stroke="#dadada" fill-opacity="1"/><circle cx="196.4770050048828" cy="76.97709655761719" fill="#ffffff" r="1.2575600147247314" id="svg_129" class="" stroke-opacity="1" stroke="#dadada" fill-opacity="1"/><path d="m146.174 92.6967 13.833-8.1742 20.121 4.4015 16.349-11.9469" stroke="#dadada" stroke-width=".628782" id="svg_130" class="" stroke-opacity="1" fill-opacity="1" fill="#none"/><path d="m151.628 72.3707h-6.532c-.647 0-1.188-.5408-1.188-1.1877v-5.3446c0-.6533.535-1.1877 1.188-1.1877h7.126c.647 0 1.188.5408 1.188 1.1877v8.3139zm-.605-1.7815-1.877-4.7508h-.998l-1.817 4.7508h.998l.386-1.063h1.871l.409 1.063zm-1.74-1.8528h-1.277l.629-1.7341z" fill="#62e51d" id="svg_131" class="" stroke-opacity="1" stroke="#62e51d" fill-opacity="1"/><rect fill="#fff" height="62" rx="4.358729839324951" stroke="#ffffff" stroke-width="2" width="67" x="491.447509765625" y="155.552490234375" id="svg_132" class="" stroke-opacity="1"/><path d="m503.333 162.94-.94-.94-4 4 4 4 .94-.94-3.06-3.06z" fill="#62e51d" id="svg_133" class="" stroke-opacity="1" stroke="#62e51d" fill-opacity="1"/><path d="m504.667 162.94.94-.94 4 4-4 4-.94-.94 3.06-3.06z" fill="#62e51d" id="svg_134" class="" stroke-opacity="1" stroke="#62e51d" fill-opacity="1"/><rect fill="#eff0f1" height="5" rx="2.5" width="56" x="498" y="177" id="svg_135" class="" stroke-opacity="1" stroke="#eff0f1" fill-opacity="1"/><rect fill="#eff0f1" height="5" rx="2.5" width="56" x="498" y="203" id="svg_136" class="" stroke-opacity="1" stroke="#eff0f1" fill-opacity="1"/><rect fill="#eff0f1" height="5" rx="2.5" width="56" x="498" y="189" id="svg_137" class="" stroke-opacity="1" stroke="#eff0f1" fill-opacity="1"/><path d="m365.5,217.52762413024902 c-41,-154 -224,-34.5 -190,47 " stroke="#000000" stroke-dasharray="2 6" stroke-linecap="round" stroke-width="1.5" id="svg_138" class="" stroke-opacity="1"/><path d="m150.32354247379303,299.27554117014495 c16.79637611865997,23.076134727478028 37.74534666347504,39.88381461715698 61.67645752620697,51.815458735466 " stroke="#000000" stroke-dasharray="2 6" stroke-linecap="round" stroke-width="1.5" id="svg_139" class="" stroke-opacity="1" fill="#none" fill-opacity="1"/><rect fill="#fff" height="15.153400421142578" rx="2.878619909286499" stroke="#ffffff" stroke-width="1.32085" width="47.587100982666016" x="426.6600036621094" y="67.86530303955078" id="svg_140" class="" stroke-opacity="1"/><rect fill="#dadada" height="8.75195026397705" rx="1.981279969215393" width="33.46329879760742" x="438.3559875488281" y="70.80860137939453" id="svg_141" class="" stroke-opacity="1" stroke="#dadada" fill-opacity="1"/><circle cx="432.95001220703125" cy="75.18460083007812" fill="#dadada" r="2.316689968109131" id="svg_142" class="" stroke-opacity="1" stroke="#dadada" fill-opacity="1"/><rect fill="#fff" height="15.850199699401855" rx="2.878619909286499" stroke="#ffffff" stroke-width="1.32085" width="47.587100982666016" x="448.4549865722656" y="45.660400390625" id="svg_143" class="" stroke-opacity="1"/><rect fill="#dadada" height="9.245969772338867" rx="1.981279969215393" width="33.46329879760742" x="460.1499938964844" y="49.264198303222656" id="svg_144" class="" stroke-opacity="1" stroke="#dadada" fill-opacity="1"/><circle cx="455.2964782714844" cy="53.640098571777344" fill="#dadada" r="2.316689968109131" id="svg_145" class="" stroke-opacity="1" stroke="#dadada" fill-opacity="1"/><rect fill="#fff" height="15.153400421142578" rx="2.878619909286499" stroke="#ffffff" stroke-width="1.32085" width="47.587100982666016" x="448.2829895019531" y="89.18620300292969" id="svg_146" class="" stroke-opacity="1"/><rect fill="#dadada" height="8.75195026397705" rx="1.981279969215393" width="33.46329879760742" x="459.9779968261719" y="92.12950134277344" id="svg_147" class="" stroke-opacity="1" stroke="#dadada" fill-opacity="1"/><circle cx="454.572998046875" cy="96.50540161132812" fill="#dadada" r="2.316689968109131" id="svg_148" class="" stroke-opacity="1" stroke="#dadada" fill-opacity="1"/><circle cx="426.4100036621094" cy="368.4100036621094" fill="#fee3cf" r="3.409719944000244" stroke="#dadada" stroke-width="2" id="svg_149" class="" stroke-opacity="1"/><circle cx="189.41000366210938" cy="379.4100036621094" fill="#ffffff" r="3.409719944000244" stroke="#272728" stroke-width="2" id="svg_150" class="" stroke-opacity="1" fill-opacity="1"/><circle cx="150.41000366210938" cy="297.8575134277344" fill="#ffffff" r="3.409719944000244" stroke="#272728" stroke-width="2" id="svg_151" class="" stroke-opacity="1" fill-opacity="1"/><circle cx="321.4100036621094" cy="140.41000366210938" fill="#ffffff" r="3.409719944000244" stroke="#272728" stroke-width="2" id="svg_152" class="" stroke-opacity="1" fill-opacity="1"/><g filter="url(#c)" id="svg_153" class="" stroke-opacity="1" stroke="#ffffff"><path d="m559.4475138187408,370.385 c0,3.654 -2.9610000000000003,6.615 -6.615,6.615 h-297.77 c-3.654,0 -6.615,-2.9610000000000003 -6.615,-6.615 v-63.77 c0,-3.654 2.9610000000000003,-6.615 6.615,-6.615 h7.952 c1.952,0 3.8040000000000003,-0.8620000000000001 5.061,-2.355 l9.265,-11.009 c2.533,-3.01 7.117,-3.157 9.838000000000001,-0.31600000000000006 l11.149000000000001,11.641 c1.248,1.302 2.973,2.039 4.777,2.039 h249.728 c3.654,0 6.615,2.9610000000000003 6.615,6.615 z" fill="#fff" id="svg_154" stroke="#ffffff" stroke-opacity="1"/><path d="m552.8325138187408,376 h-297.77 c-3.101,0 -5.615,-2.5140000000000002 -5.615,-5.615 v-63.77 c0,-3.101 2.5140000000000002,-5.615 5.615,-5.615 h7.952 c2.247,0 4.3790000000000004,-0.992 5.8260000000000005,-2.7110000000000003 l9.266,-11.01 c2.15,-2.5540000000000003 6.041,-2.6790000000000003 8.35,-0.268 l11.149000000000001,11.641 c1.436,1.5 3.423,2.348 5.499,2.348 h249.728 c3.101,0 5.615,2.5140000000000002 5.615,5.615 v63.77 c0,3.101 -2.5140000000000002,5.615 -5.615,5.615 z" stroke="#ffffff" stroke-width="2" id="svg_155" stroke-opacity="1"/></g><rect fill="#dadada" height="20.946199417114258" rx="3.5496299266815186" width="223.79299926757812" x="310.7359924316406" y="312.9700012207031" id="svg_156" class="" stroke-opacity="1" stroke="#dadada" fill-opacity="1"/><rect fill="#dadada" height="20.946199417114258" rx="3.5496299266815186" width="144.41799926757812" x="310.7359924316406" y="343.8380126953125" id="svg_157" class="" stroke-opacity="1" stroke="#dadada" fill-opacity="1"/><path d="m293.328 331.518-2.198-2.199-10.277 10.277-4.039-4.039-2.199 2.199 6.238 6.238z" fill="#62e51d" id="svg_158" class="" stroke-opacity="1" stroke="#62e51d" fill-opacity="1"/><path d="m291.77 350.967h-15.855c-.982 0-1.474 1.188-.78 1.882l8.456 8.456c.451.451 1.19.427 1.609-.053l7.4-8.456c.623-.713.117-1.829-.83-1.829z" fill="#eff0f1" id="svg_159" class="" stroke-opacity="1" stroke="#eff0f1"/><path d="m275.683 323.039h15.855c.982 0 1.474-1.187.779-1.882l-8.456-8.456c-.451-.451-1.189-.426-1.609.054l-7.399 8.456c-.624.713-.117 1.828.83 1.828z" fill="#62e51d" id="svg_160" class="" stroke-opacity="1" stroke="#62e51d" fill-opacity="1"/><path d="m476.179 360.453h-12.127c-1.201 0-2.205-1.004-2.205-2.205v-9.922c0-1.212.992-2.205 2.205-2.205h13.229c1.201 0 2.205 1.004 2.205 2.205v15.434zm-1.125-3.307-3.484-8.82h-1.852l-3.373 8.82h1.852l.716-1.974h3.473l.761 1.974zm-3.23-3.44h-2.37l1.168-3.219z" fill="#62e51d" id="svg_161" class="" stroke-opacity="1" stroke="#62e51d" fill-opacity="1"/><path clip-rule="evenodd" d="m183.954 215.149 4.667-2 4.666 2v3.347c0 3.113-3.54 5.32-4.666 5.32-1.127 0-4.667-2.207-4.667-5.32zm4.093 3.467-.76 1.867h2.667l-.76-1.867c-.033-.153.04-.307.167-.393.373-.24.593-.634.593-1.074 0-.726-.627-1.333-1.347-1.333-.726 0-1.32.607-1.32 1.333 0 .44.22.834.594 1.074.131.084.197.24.166.393z" fill="#6a737c" fill-rule="evenodd" id="svg_162" class="" stroke-opacity="1" stroke="#dadada"/><g filter="url(#d)" id="svg_163" class="" stroke-opacity="1" stroke="#ffffff" transform="translate(3.3149173259735107,1.1049723625183105) "><path d="m81.89502763748169,183.3000826740265 c0,-3.654 2.9614000000000003,-6.615 6.6146,-6.615 h370.3574 c3.653,0 6.614,2.9610000000000003 6.614,6.615 v63.943 c0,3.653 -2.9610000000000003,6.614 -6.614,6.614 h-5.23 c-1.937,0 -3.776,0.8490000000000002 -5.033,2.322 l-6.803,7.976 c-2.5300000000000002,2.966 -7.063,3.112 -9.779,0.3140000000000001 l-8.351,-8.604 c-1.245,-1.283 -2.958,-2.008 -4.746,-2.008 h-330.4154 c-3.6532,0 -6.6146,-2.9610000000000003 -6.6146,-6.614 z" fill="#fff" id="svg_164" stroke="#ffffff" stroke-opacity="1"/><path d="m88.50962763748169,177.6850826740265 h370.3574 c3.1,0 5.614,2.5140000000000002 5.614,5.615 v63.943 c0,3.101 -2.5140000000000002,5.614 -5.614,5.614 h-5.23 c-2.23,0 -4.347,0.977 -5.7940000000000005,2.6740000000000004 l-6.802,7.975 c-2.148,2.518 -5.996,2.6420000000000003 -8.301,0.267 l-8.351,-8.604 c-1.4340000000000002,-1.478 -3.4050000000000002,-2.3120000000000003 -5.464,-2.3120000000000003 h-330.4154 c-3.1009,0 -5.6146,-2.513 -5.6146,-5.614 v-63.943 c0,-3.101 2.5137,-5.615 5.6146,-5.615 z" stroke="#ffffff" stroke-width="2" id="svg_165" stroke-opacity="1"/></g><rect fill="#d1f7bd" fill-opacity="1" height="39.10340118408203" rx="6" width="39.10340118408203" x="124.89700317382812" y="199.447509765625" id="svg_166" class="" stroke-opacity="1" stroke="#d1f7bd"/><rect fill="#62e51d" height="15.82759952545166" rx="3" width="12.103400230407715" x="138.86199951171875" y="206.51699829101562" id="svg_167" class="" stroke-opacity="1" stroke="#62e51d" fill-opacity="1"/><rect fill="#62e51d" height="25.13789939880371" rx="3" transform="matrix(0,1,-1,0,384.483,69.517) " width="6.517240047454834" x="156.93051147460938" y="227" id="svg_168" class="" stroke-opacity="1" stroke="#62e51d" fill-opacity="1"/><rect fill="#eff0f1" height="15.82759952545166" rx="3" width="12.103400230407715" x="96.96549987792969" y="206.51699829101562" id="svg_169" class="" stroke-opacity="1" stroke="#eff0f1"/><rect fill="#eff0f1" height="25.13789939880371" rx="3" transform="matrix(0,1,-1,0,342.586,111.414) " width="6.517240047454834" x="115.58599853515625" y="227" id="svg_170" class="" stroke-opacity="1" stroke="#eff0f1"/><rect fill="#eff0f1" height="15.82759952545166" rx="3" width="12.103400230407715" x="179.8280029296875" y="206.51699829101562" id="svg_171" class="" stroke-opacity="1" stroke="#eff0f1"/><rect fill="#eff0f1" height="25.13789939880371" rx="3" transform="matrix(0,1,-1,0,425.448,28.552) " width="6.517240047454834" x="198.447998046875" y="227" id="svg_172" class="" stroke-opacity="1" stroke="#eff0f1"/><rect fill="#eff0f1" height="16" rx="3" width="218" x="209" y="202.03399658203125" id="svg_173" class="" stroke-opacity="1" stroke="#eff0f1" fill-opacity="1"/><rect fill="#dadada" height="15.82759952545166" rx="3" width="27" x="208.69000244140625" y="224.20700073242188" id="svg_174" class="" stroke-opacity="1" stroke="#dadada" fill-opacity="1"/><rect fill="#dadada" height="15.82759952545166" rx="3" width="27" x="243.13800048828125" y="224.20700073242188" id="svg_175" class="" stroke-opacity="1" stroke="#dadada" fill-opacity="1"/><rect fill="#dadada" height="15.82759952545166" rx="3" width="27" x="277.58599853515625" y="224.20700073242188" id="svg_176" class="" stroke-opacity="1" stroke="#dadada" fill-opacity="1"/><path clip-rule="evenodd" d="m432.5470829124451,218 l3,-3 h11 c1.089,0 2,-0.911 2,-2 v-9 c0,-1.089 -0.911,-2 -2,-2 h-12 c-1.1,0 -2,0.9 -2,2 zm7.96,-4.94 c-0.5700000000000002,-0.020000000000000007 -1.03,-0.4300000000000001 -1.01,-1.06 s0.5,-1.04 1.08,-1.02 c0.6000000000000002,0.020000000000000007 1.05,0.45 1.03,1.08 s-0.4800000000000001,1.02 -1.1,1 zm0.92,-3.678 c-0.04600000000000002,0.21400000000000005 -0.07300000000000002,0.4310000000000001 -0.08000000000000003,0.6500000000000002 c0,0.040000000000000015 -0.030000000000000013,0.14 -0.16000000000000006,0.14 h-1.4 c-0.14,0 -0.16000000000000006,-0.09000000000000004 -0.16000000000000006,-0.13 c-0.013000000000000006,-0.4980000000000001 0.11200000000000003,-0.989 0.3600000000000001,-1.42 c0.20900000000000005,-0.3620000000000001 0.5810000000000002,-0.6540000000000002 1.06,-0.93 c0.4110000000000001,-0.23700000000000004 0.776,-0.7120000000000002 0.783,-1.196 c0.004000000000000002,-0.272 -0.09000000000000004,-0.535 -0.263,-0.7440000000000002 c-0.22000000000000006,-0.26 -0.46,-0.4 -0.92,-0.4 c-0.45,0 -0.8300000000000002,0.23 -1.02,0.52 c-0.16700000000000007,0.264 -0.16400000000000006,0.552 -0.16100000000000006,0.8280000000000002 c0.0010000000000000005,0.03800000000000001 0.0010000000000000005,0.07500000000000002 0.0010000000000000005,0.11200000000000003 h-1.7200000000000002 c0,-1.17 0.3100000000000001,-1.92 0.98,-2.36 c0.558,-0.3110000000000001 1.191,-0.463 1.83,-0.4400000000000001 c0.8800000000000002,0 1.58,0.16000000000000006 2.2,0.6200000000000002 c0.5800000000000002,0.4200000000000001 0.8800000000000002,1.02 0.8800000000000002,1.82 c0,0.5 -0.17,0.9 -0.4300000000000001,1.24 c-0.15000000000000005,0.2 -0.4400000000000001,0.4700000000000001 -0.8600000000000002,0.79 l-0.4800000000000001,0.3000000000000001 c-0.20600000000000004,0.14800000000000005 -0.3610000000000001,0.3580000000000001 -0.4400000000000001,0.6000000000000002 z" fill="#62e51d" fill-rule="evenodd" id="svg_177" class="" stroke-opacity="1" stroke="#62e51d" fill-opacity="1"/><circle cx="282.4100036621094" cy="278.4100036621094" fill="#ffffff" r="3.409719944000244" stroke="#272728" stroke-width="2" id="svg_178" class="selected" stroke-opacity="1" fill-opacity="1" transform="translate(0.5524861812591553,0) "/><circle cx="440.9624938964844" cy="281.27740478515625" fill="#ffffff" r="3.409719944000244" stroke="#272728" stroke-width="2" id="svg_179" class="" stroke-opacity="1" fill-opacity="1"/></g></svg>